<?xml version="1.0" encoding="utf-8"?>
<svg height="800px" width="800px" version="1.1" id="Layer_1" xmlns="http://www.w3.org/2000/svg" viewBox="0 0 512.002 512.002" xmlns:bx="https://boxy-svg.com"><defs><bx:export><bx:file format="svg"/></bx:export></defs><rect style="stroke: rgb(0, 0, 0); stroke-opacity: 0; stroke-width: 0px; fill: rgb(243, 146, 0);" x="0.093" width="511.909" height="512.002" rx="50" ry="50"/><path style="fill: rgb(251, 176, 173);" d="M 424.155 283.322 C 443.591 283.322 459.344 299.076 459.344 318.512 C 459.344 337.948 443.591 353.702 424.155 353.702 L 403.273 353.702 L 403.273 283.323 L 424.155 283.323 L 424.155 283.322 Z"/><path style="fill: rgb(251, 205, 203);" d="M 403.273 283.322 L 403.273 353.701 L 390.132 353.701 C 366.406 353.701 344.589 345.371 327.447 331.489 L 327.477 331.46 L 373.434 278.107 C 378.178 281.395 383.934 283.322 390.133 283.322 L 403.273 283.322 Z"/><path style="fill: rgb(251, 176, 173);" d="M 373.434 278.107 L 327.476 331.46 L 327.446 331.489 C 309.1 316.642 296.105 295.431 291.863 271.243 L 291.93 271.233 L 359.821 240.488 C 360.418 244.885 360.728 249.368 360.728 253.917 C 360.727 263.935 365.76 272.795 373.434 278.107 Z"/><path style="fill: rgb(251, 205, 203);" d="M 359.821 240.489 L 291.93 271.234 L 291.863 271.244 C 290.869 265.613 290.349 259.83 290.349 253.919 C 290.349 246.052 287.245 238.889 282.192 233.605 L 282.221 233.577 L 327.446 179.598 C 344.713 195.051 356.572 216.426 359.821 240.489 Z"/><path style="fill: rgb(251, 176, 173);" d="M 282.192 233.604 C 276.831 228.003 269.293 224.513 260.943 224.513 L 258.658 224.513 L 258.658 154.135 L 260.943 154.135 C 286.463 154.135 309.785 163.766 327.446 179.598 L 282.221 233.577 L 282.192 233.604 Z"/><path style="fill: rgb(251, 205, 203);" d="M 258.658 154.135 L 258.658 224.513 L 256.287 224.513 C 247.958 224.513 240.429 227.994 235.077 233.566 L 189.833 179.558 C 207.485 163.757 230.787 154.135 256.287 154.135 C 256.287 154.135 258.658 154.135 258.658 154.135 Z"/><path style="fill: rgb(251, 176, 173);" d="M 189.833 179.558 L 235.077 233.566 C 230.006 238.849 226.882 246.031 226.882 253.918 C 226.882 259.818 226.372 265.613 225.379 271.233 L 157.411 240.459 C 160.67 216.386 172.547 195.004 189.833 179.558 Z"/><path style="fill: rgb(251, 205, 203);" d="M 157.411 240.46 L 225.379 271.234 C 221.136 295.404 208.16 316.604 189.833 331.451 L 143.855 278.079 C 151.491 272.757 156.504 263.917 156.504 253.919 C 156.504 249.358 156.812 244.865 157.411 240.46 Z"/><path style="fill: rgb(251, 176, 173);" d="M 143.856 278.079 L 189.834 331.45 C 172.682 345.362 150.856 353.701 127.1 353.701 L 88.382 353.701 C 68.946 353.701 53.192 337.948 53.192 318.511 C 53.192 299.075 68.946 283.322 88.382 283.322 L 127.099 283.322 C 133.319 283.322 139.102 281.385 143.856 278.079 Z"/><path d="M 424.155 363.343 L 390.131 363.343 C 365.193 363.343 340.777 354.691 321.379 338.98 C 300.77 322.303 286.914 298.836 282.367 272.908 C 281.266 266.671 280.707 260.28 280.707 253.918 C 280.707 248.813 278.759 243.967 275.223 240.268 C 271.451 236.326 266.379 234.154 260.943 234.154 L 256.286 234.154 C 250.863 234.154 245.8 236.317 242.03 240.243 C 238.478 243.943 236.521 248.8 236.521 253.918 C 236.521 260.321 235.967 266.712 234.871 272.91 C 230.325 298.811 216.485 322.265 195.9 338.941 C 176.501 354.674 152.066 363.342 127.098 363.342 L 88.382 363.342 C 63.662 363.343 43.552 343.232 43.552 318.512 C 43.552 293.792 63.662 273.683 88.382 273.683 L 127.099 273.683 C 131.152 273.683 135.041 272.466 138.349 270.165 C 143.678 266.451 146.863 260.376 146.863 253.918 C 146.863 248.987 147.198 244.023 147.857 239.163 C 151.336 213.467 163.961 189.744 183.409 172.369 C 203.488 154.395 229.372 144.494 256.287 144.494 L 260.943 144.494 C 287.887 144.494 313.791 154.41 333.88 172.418 C 353.3 189.798 365.907 213.517 369.374 239.199 C 370.032 244.038 370.366 248.993 370.366 253.919 C 370.366 260.394 373.563 266.473 378.92 270.181 C 382.227 272.472 386.101 273.683 390.131 273.683 L 424.154 273.683 C 429.477 273.683 433.795 278 433.795 283.323 C 433.795 288.648 429.477 292.965 424.154 292.965 L 390.131 292.965 C 382.158 292.965 374.485 290.569 367.94 286.032 C 357.388 278.729 351.085 266.722 351.085 253.92 C 351.085 249.861 350.81 245.78 350.266 241.79 C 347.411 220.643 337.024 201.111 321.016 186.782 C 304.462 171.946 283.129 163.778 260.943 163.778 L 256.286 163.778 C 234.123 163.778 212.805 171.934 196.261 186.744 C 180.228 201.069 169.826 220.602 166.962 241.756 C 166.419 245.762 166.143 249.853 166.143 253.921 C 166.143 266.679 159.871 278.669 149.366 285.99 C 142.805 290.555 135.107 292.966 127.097 292.966 L 88.382 292.966 C 74.294 292.966 62.834 304.427 62.834 318.515 C 62.834 332.603 74.294 344.063 88.382 344.063 L 127.099 344.063 C 147.956 344.063 167.549 337.114 183.76 323.965 C 200.733 310.214 212.141 290.898 215.884 269.569 C 216.786 264.462 217.243 259.202 217.243 253.922 C 217.243 243.803 221.107 234.203 228.124 226.893 C 235.566 219.143 245.568 214.875 256.289 214.875 L 260.945 214.875 C 271.694 214.875 281.712 219.16 289.16 226.942 C 296.145 234.248 299.992 243.829 299.992 253.922 C 299.992 259.163 300.453 264.429 301.358 269.57 C 305.102 290.921 316.523 310.246 333.514 323.997 C 349.491 336.937 369.599 344.062 390.134 344.062 L 424.157 344.062 C 438.244 344.062 449.706 332.601 449.706 318.513 C 449.706 313.19 454.023 308.872 459.346 308.872 C 464.67 308.872 468.987 313.19 468.987 318.513 C 468.984 343.232 448.874 363.343 424.155 363.343 Z" style=""/><path d="M 450.607 304.94 C 447.931 304.94 445.269 303.833 443.364 301.666 C 442.912 301.154 442.436 300.653 441.947 300.176 C 438.128 296.464 438.041 290.361 441.752 286.544 C 445.463 282.726 451.568 282.639 455.385 286.35 C 456.234 287.174 457.059 288.044 457.841 288.931 C 461.358 292.93 460.968 299.022 456.97 302.538 C 455.138 304.149 452.867 304.94 450.607 304.94 Z" style=""/><path d="M 102.149 332.973 C 96.825 332.973 92.508 328.656 92.508 323.333 L 92.508 314.338 C 92.508 309.014 96.824 304.697 102.149 304.697 C 107.474 304.697 111.791 309.014 111.791 314.338 L 111.791 323.333 C 111.79 328.656 107.474 332.973 102.149 332.973 Z" style=""/><path d="M 189.833 341.096 C 186.798 341.096 184.092 339.696 182.324 337.505 L 136.604 284.431 C 133.279 280.644 133.419 274.87 137.033 271.256 C 140.798 267.491 146.897 267.484 150.664 271.251 C 150.833 271.42 151.004 271.604 151.16 271.785 L 197.138 325.157 C 198.645 326.907 199.474 329.14 199.474 331.449 C 199.474 336.773 195.158 341.096 189.833 341.096 Z" style=""/><path d="M 225.372 280.877 C 224.043 280.877 222.692 280.6 221.402 280.016 L 153.434 249.242 C 148.584 247.046 146.432 241.333 148.628 236.483 C 150.825 231.633 156.536 229.48 161.387 231.677 L 229.354 262.452 C 234.205 264.647 236.357 270.361 234.16 275.211 C 232.55 278.769 229.042 280.877 225.372 280.877 Z" style=""/><path d="M 258.66 234.154 C 253.336 234.154 249.019 229.837 249.019 224.513 L 249.019 154.135 C 249.019 148.811 253.335 144.494 258.66 144.494 C 263.984 144.494 268.302 148.811 268.302 154.135 L 268.302 224.513 C 268.301 229.837 263.984 234.154 258.66 234.154 Z" style=""/><path d="M 235.082 243.215 C 232.463 243.215 229.855 242.153 227.953 240.061 L 227.943 240.05 C 227.855 239.954 227.77 239.856 227.686 239.756 L 182.442 185.748 C 179.022 181.667 179.559 175.586 183.64 172.165 C 187.721 168.747 193.802 169.283 197.222 173.365 L 242.438 227.337 C 245.777 231.282 245.421 237.198 241.566 240.701 C 239.72 242.385 237.396 243.215 235.082 243.215 Z" style=""/><path d="M 327.471 341.101 C 325.244 341.101 323.005 340.332 321.185 338.764 C 317.15 335.289 316.698 329.203 320.173 325.168 L 366.072 271.882 C 369.312 268.043 375.029 267.298 379.142 270.307 C 383.439 273.452 384.388 279.464 381.244 283.761 C 381.094 283.967 380.906 284.205 380.739 284.398 L 334.781 337.751 C 332.873 339.965 330.181 341.101 327.471 341.101 Z" style=""/><path d="M 291.936 280.877 C 288.266 280.877 284.76 278.771 283.148 275.211 C 280.951 270.361 283.102 264.648 287.953 262.452 L 355.844 231.707 C 356.031 231.622 356.22 231.544 356.412 231.471 C 361.394 229.59 366.995 232.085 368.877 237.065 C 370.725 241.955 368.378 247.39 363.581 249.372 L 295.908 280.017 C 294.617 280.6 293.265 280.876 291.936 280.877 Z" style=""/><path d="M 282.216 243.216 C 280.031 243.216 277.835 242.478 276.03 240.966 C 271.95 237.546 271.412 231.466 274.832 227.384 L 320.021 173.448 C 323.29 169.492 329.144 168.762 333.276 171.886 C 337.522 175.098 338.378 181.125 335.166 185.372 C 335.068 185.5 334.94 185.665 334.836 185.787 L 289.61 239.767 C 287.705 242.044 284.97 243.216 282.216 243.216 Z" style=""/><path d="M 403.273 363.343 C 397.95 363.343 393.632 359.024 393.632 353.701 L 393.632 283.322 C 393.632 277.999 397.95 273.682 403.273 273.682 C 408.597 273.682 412.915 277.999 412.915 283.322 L 412.915 353.701 C 412.914 359.024 408.597 363.343 403.273 363.343 Z" style=""/></svg>